<?xml version="1.0" encoding="utf-8"?>
<!-- Generator: Adobe Illustrator 21.0.2, SVG Export Plug-In . SVG Version: 6.00 Build 0)  -->
<svg version="1.1" id="Layer_1" xmlns="http://www.w3.org/2000/svg" xmlns:xlink="http://www.w3.org/1999/xlink" x="0px" y="0px"
	 viewBox="0 0 300 80" style="enable-background:new 0 0 300 80;" xml:space="preserve">
<style type="text/css">
	.st0{fill:#231F20;}
	.st1{fill:#A054A0;}
</style>
<g>
	<g>
		<g>
			<path class="st0" d="M80.5,30.5L51.1,1.8v44.7h7.7V19.4L88.2,48V3.4h-7.7V30.5z M278.8,22.3l16.7-19h-9.1L268.1,24V3.4h-7.7v43
				h7.7V33.8l5.4-6L287,46.4h9L278.8,22.3z M193.1,2.6c-12.3,0-22.3,10-22.3,22.3s10,22.3,22.3,22.3s22.3-10,22.3-22.3
				C215.4,12.6,205.4,2.6,193.1,2.6z M193.1,40.2c-8.5,0-15.3-6.9-15.3-15.3c0-8.5,6.9-15.3,15.3-15.3c8.5,0,15.3,6.9,15.3,15.3
				C208.4,33.3,201.5,40.2,193.1,40.2z M5.5,46.4h8.2l3.8-8.3H36l3.8,8.3H48L26.8,1.3L5.5,46.4z M20.4,31.4l6.4-14l6.4,14H20.4z
				 M91.2,46.4h8.2l3.8-8.3h18.5l3.8,8.3h8.2L112.5,1.3L91.2,46.4z M106.1,31.4l6.4-14l6.4,14H106.1z M167.6,17
				c0-3.9-1.4-7.1-4.1-9.7c-2.7-2.7-6-4-9.9-4h-16.7v43h7.7V31.1h7.7l9.2,15.3h8.7l-10.4-17.2C164.4,27.3,167.6,22.6,167.6,17z
				 M152.8,24.2h-8.2V10.3h8.8c3.7,0,6.5,2.8,6.5,6.8C159.9,21.3,157,24.2,152.8,24.2z M240.5,9.6c4.1,0,7.9,1.6,10.8,4.5l4.9-4.9
				c-4.4-4.4-10.1-6.5-15.8-6.5S229,4.9,224.6,9.2c-8.7,8.7-8.7,22.9,0,31.6c4.4,4.4,10.1,6.5,15.8,6.5s11.4-2.2,15.8-6.5l-4.9-4.9
				c-2.9,2.9-6.7,4.5-10.8,4.5s-7.9-1.6-10.8-4.5c-6-6-6-15.7,0-21.7C232.6,11.2,236.4,9.6,240.5,9.6z"/>
			<g>
				<path class="st0" d="M48.4,78.9h-0.7l-4.8-11h2.5l2.7,6.6l2.7-6.6h2.5L48.4,78.9z"/>
				<path class="st0" d="M66.3,78.7h-2.4l-0.6-1.4h-4.4l-0.6,1.4h-2.4l4.8-11h0.7L66.3,78.7z M59.7,75.5h2.9l-1.4-3.6L59.7,75.5z"/>
				<path class="st0" d="M73.4,76.7h4.7v2h-6.9V67.9h2.2C73.4,67.9,73.4,76.7,73.4,76.7z"/>
				<path class="st0" d="M91.9,74.2c0,0.7-0.1,1.4-0.4,1.9c-0.2,0.6-0.6,1.1-1,1.5s-0.9,0.7-1.4,0.9c-0.6,0.2-1.2,0.3-1.8,0.3
					c-0.7,0-1.3-0.1-1.8-0.3c-0.6-0.2-1-0.5-1.5-0.9c-0.4-0.4-0.7-0.9-1-1.5c-0.2-0.6-0.3-1.2-0.3-1.9v-6.3H85v6.5
					c0,0.4,0.1,0.8,0.2,1.1c0.1,0.3,0.3,0.6,0.5,0.8c0.2,0.2,0.5,0.4,0.8,0.5s0.6,0.2,0.9,0.2s0.7-0.1,0.9-0.2
					c0.3-0.1,0.5-0.3,0.8-0.5c0.2-0.2,0.4-0.5,0.5-0.8s0.2-0.7,0.2-1.1v-6.5H92L91.9,74.2L91.9,74.2z"/>
				<path class="st0" d="M105.1,69.9H100v2.2h3.7V74H100v2.7h5.3v2h-7.5V67.9h7.3C105.1,67.9,105.1,69.9,105.1,69.9z"/>
				<path class="st0" d="M114.2,67.7c0.9,0,1.6,0.2,2.2,0.6s1.1,0.9,1.4,1.5l-1.5,1.2c-0.3-0.4-0.6-0.7-0.9-0.9
					c-0.3-0.2-0.7-0.3-1.2-0.3c-0.4,0-0.7,0.1-0.9,0.3c-0.3,0.2-0.4,0.4-0.4,0.8c0,0.3,0.1,0.6,0.3,0.7c0.2,0.2,0.5,0.3,0.9,0.5
					l1.2,0.5c0.9,0.4,1.5,0.8,2,1.3s0.7,1.1,0.7,1.9c0,0.5-0.1,1-0.3,1.4c-0.2,0.4-0.5,0.7-0.8,1s-0.7,0.5-1.2,0.6s-1,0.2-1.5,0.2
					c-0.9,0-1.8-0.2-2.5-0.7c-0.7-0.4-1.3-1-1.7-1.7l1.5-1.1c0.1,0.2,0.3,0.4,0.5,0.6s0.4,0.4,0.6,0.5s0.4,0.3,0.7,0.4
					c0.3,0.1,0.6,0.1,0.9,0.1c0.5,0,0.9-0.1,1.1-0.3c0.3-0.2,0.4-0.5,0.4-0.9c0-0.3-0.1-0.6-0.4-0.8c-0.2-0.2-0.6-0.4-1-0.6
					l-1.1-0.5c-0.4-0.2-0.7-0.4-1.1-0.6c-0.3-0.2-0.6-0.4-0.8-0.7c-0.2-0.3-0.4-0.5-0.5-0.8s-0.2-0.6-0.2-1c0-0.5,0.1-0.9,0.3-1.3
					c0.2-0.4,0.4-0.7,0.8-1c0.3-0.3,0.7-0.5,1.1-0.6C113.2,67.8,113.7,67.7,114.2,67.7z"/>
				<path class="st0" d="M136.9,67.7c0.8,0,1.5,0.1,2.2,0.4s1.3,0.7,1.8,1.2s0.9,1.1,1.2,1.8c0.3,0.7,0.4,1.4,0.4,2.2
					c0,0.8-0.1,1.5-0.4,2.2c-0.3,0.7-0.7,1.3-1.2,1.8s-1.1,0.9-1.8,1.2c-0.7,0.3-1.4,0.4-2.2,0.4s-1.5-0.1-2.2-0.4s-1.3-0.7-1.8-1.2
					s-0.9-1.1-1.2-1.8c-0.3-0.7-0.5-1.4-0.5-2.2c0-0.8,0.2-1.5,0.5-2.2s0.7-1.3,1.2-1.8s1.1-0.9,1.8-1.2
					C135.3,67.8,136.1,67.7,136.9,67.7z M136.9,69.7c-0.5,0-1,0.1-1.4,0.3c-0.4,0.2-0.8,0.4-1.1,0.7c-0.3,0.3-0.6,0.7-0.7,1.1
					c-0.2,0.4-0.3,0.9-0.3,1.4s0.1,1,0.3,1.4s0.4,0.8,0.7,1.1c0.3,0.3,0.7,0.6,1.1,0.7c0.4,0.2,0.9,0.3,1.4,0.3s0.9-0.1,1.4-0.3
					c0.4-0.2,0.8-0.4,1.1-0.7c0.3-0.3,0.6-0.7,0.7-1.1c0.2-0.4,0.3-0.9,0.3-1.4s-0.1-1-0.3-1.4s-0.4-0.8-0.7-1.1
					c-0.3-0.3-0.7-0.6-1.1-0.7C137.8,69.8,137.4,69.7,136.9,69.7z"/>
				<path class="st0" d="M151.8,78.9h-0.7l-4.8-11h2.5l2.7,6.6l2.7-6.6h2.5L151.8,78.9z"/>
				<path class="st0" d="M168.8,69.9h-5.1v2.2h3.7V74h-3.7v2.7h5.3v2h-7.5V67.9h7.3V69.9z"/>
				<path class="st0" d="M178.5,67.9c0.6,0,1.1,0.1,1.6,0.2c0.5,0.2,0.9,0.4,1.2,0.7c0.3,0.3,0.6,0.7,0.8,1.1s0.3,0.9,0.3,1.4
					c0,0.7-0.2,1.3-0.5,1.9c-0.3,0.5-0.8,0.9-1.4,1.2l3,4.2H181l-2.8-3.8h-1.6v3.8h-2.2V67.9H178.5z M176.7,69.8v3.1h1.8
					c0.5,0,0.9-0.1,1.2-0.4s0.4-0.7,0.4-1.1c0-0.5-0.1-0.8-0.4-1.1c-0.3-0.3-0.7-0.4-1.2-0.4L176.7,69.8L176.7,69.8z"/>
				<path class="st0" d="M201.2,78.9h-0.7l-4.8-11h2.5l2.7,6.6l2.7-6.6h2.5L201.2,78.9z"/>
				<path class="st0" d="M219.1,78.7h-2.4l-0.6-1.4h-4.4l-0.6,1.4h-2.4l4.8-11h0.7L219.1,78.7z M212.5,75.5h2.9l-1.4-3.6L212.5,75.5
					z"/>
				<path class="st0" d="M226.2,76.7h4.7v2H224V67.9h2.2V76.7z"/>
				<path class="st0" d="M244.8,74.2c0,0.7-0.1,1.4-0.4,1.9c-0.2,0.6-0.6,1.1-1,1.5s-0.9,0.7-1.4,0.9c-0.6,0.2-1.2,0.3-1.8,0.3
					c-0.7,0-1.3-0.1-1.8-0.3c-0.6-0.2-1-0.5-1.5-0.9c-0.4-0.4-0.7-0.9-1-1.5c-0.2-0.6-0.3-1.2-0.3-1.9v-6.3h2.2v6.5
					c0,0.4,0.1,0.8,0.2,1.1c0.1,0.3,0.3,0.6,0.5,0.8c0.2,0.2,0.5,0.4,0.8,0.5s0.6,0.2,0.9,0.2c0.3,0,0.7-0.1,0.9-0.2
					c0.3-0.1,0.5-0.3,0.8-0.5c0.2-0.2,0.4-0.5,0.5-0.8s0.2-0.7,0.2-1.1v-6.5h2.2L244.8,74.2L244.8,74.2z"/>
				<path class="st0" d="M258,69.9h-5.1v2.2h3.7V74h-3.7v2.7h5.3v2h-7.5V67.9h7.3V69.9z"/>
			</g>
		</g>
		<g>
			<rect x="5.5" y="56.2" class="st1" width="290.5" height="1.9"/>
		</g>
	</g>
</g>
</svg>
